<?xml version="1.0" encoding="UTF-8" ?>
<!DOCTYPE svg PUBLIC "-//W3C//DTD SVG 1.1//EN" "http://www.w3.org/Graphics/SVG/1.1/DTD/svg11.dtd">
<svg width="1024pt" height="1024pt" viewBox="0 0 1024 1024" version="1.1" xmlns="http://www.w3.org/2000/svg">
<g id="#15212dff">
<path fill="#15212d" opacity="1.00" d=" M 0.00 0.00 L 1024.00 0.00 L 1024.00 1024.00 L 0.00 1024.00 L 0.00 0.00 M 474.61 170.62 C 441.10 179.08 411.24 200.08 390.83 227.84 C 373.88 250.71 364.00 278.50 361.61 306.81 C 360.30 317.86 361.39 329.02 362.92 339.99 C 366.98 367.41 379.23 393.58 398.01 414.00 C 409.60 427.05 421.96 439.42 434.95 451.09 C 439.34 454.76 443.74 458.61 448.98 461.03 C 454.86 463.54 461.50 461.65 467.01 459.04 C 477.03 454.11 485.84 447.09 494.18 439.76 C 491.48 435.88 487.86 432.80 484.64 429.38 C 475.08 419.61 465.43 409.93 456.14 399.90 C 444.39 387.49 432.37 374.93 424.31 359.69 C 416.53 345.47 414.27 328.95 414.38 312.94 C 414.72 289.25 425.94 266.93 441.36 249.43 C 447.87 241.71 456.31 235.97 464.95 230.90 C 475.60 224.73 487.42 220.63 499.54 218.56 C 508.32 217.27 517.25 217.63 526.08 218.11 C 544.96 219.72 563.39 226.86 578.15 238.79 C 592.13 249.51 602.73 264.27 609.64 280.39 C 616.29 295.78 617.21 312.95 615.47 329.44 C 613.54 344.73 608.29 359.70 599.33 372.32 C 592.42 382.54 583.42 391.04 575.13 400.10 C 559.96 415.93 544.63 431.63 528.51 446.51 C 515.72 458.19 502.70 469.81 487.97 479.00 C 475.59 486.94 461.36 491.80 446.80 493.65 C 432.24 494.92 417.60 494.53 403.00 494.58 C 387.03 494.51 371.07 494.74 355.11 494.51 C 351.89 494.04 347.37 494.15 345.66 490.92 C 346.40 487.43 348.81 484.67 350.70 481.75 C 354.31 476.39 358.16 470.66 358.46 463.98 C 358.90 458.80 358.11 452.77 353.47 449.60 C 345.94 444.52 335.61 443.34 327.33 447.29 C 320.52 450.40 315.45 456.09 310.38 461.40 C 301.35 471.05 291.98 480.39 283.42 490.45 C 278.14 496.66 274.75 504.73 275.61 512.99 C 276.27 523.88 283.35 532.82 290.41 540.55 C 300.76 551.53 311.48 562.17 322.62 572.34 C 330.71 579.95 344.53 581.48 353.41 574.40 C 358.65 570.37 360.53 562.96 358.11 556.85 C 356.67 552.14 352.36 549.37 349.76 545.43 C 375.16 546.47 400.59 545.80 426.00 546.00 C 442.84 546.31 459.84 545.38 476.23 541.25 C 490.31 537.93 503.74 531.89 515.55 523.53 C 529.97 513.56 543.02 501.75 555.76 489.75 C 572.17 474.51 588.37 459.04 604.30 443.30 C 614.85 432.85 625.69 422.67 635.52 411.53 C 646.04 399.30 654.35 385.19 660.15 370.15 C 674.33 332.82 672.16 289.79 655.15 253.75 C 640.80 222.82 615.75 197.02 585.38 181.57 C 551.42 164.45 511.30 161.66 474.61 170.62 M 695.80 443.68 C 687.55 445.93 681.18 454.38 681.93 463.03 C 682.27 473.06 690.44 480.17 694.26 488.86 C 692.89 489.41 691.53 490.07 690.03 490.02 C 662.34 489.99 634.66 490.00 606.97 490.00 C 601.41 490.04 595.53 490.64 590.80 493.81 C 585.68 497.26 581.59 501.93 577.19 506.20 C 568.30 515.17 558.96 523.67 549.60 532.14 C 552.74 534.43 556.45 535.70 560.12 536.85 C 574.65 541.07 589.94 541.80 604.98 541.88 C 633.71 542.04 662.45 541.82 691.18 542.06 C 688.29 548.45 681.93 553.44 681.89 560.96 C 681.28 566.91 684.19 573.82 690.21 575.79 C 696.65 577.17 704.21 577.02 709.46 572.51 C 713.46 569.18 716.98 565.32 720.70 561.70 C 730.29 551.95 740.09 542.39 749.23 532.21 C 755.85 524.85 759.98 514.74 758.27 504.77 C 756.77 495.05 749.79 487.57 743.30 480.71 C 733.75 470.59 724.16 460.50 714.05 450.95 C 709.30 446.27 702.75 442.07 695.80 443.68 M 745.94 600.70 C 732.60 601.62 719.12 608.59 712.71 620.67 C 707.35 630.31 708.13 641.72 708.20 652.36 C 701.17 652.51 694.14 652.35 687.12 652.42 C 686.90 661.26 686.99 670.10 687.06 678.94 C 694.36 679.09 701.65 678.90 708.95 679.05 C 709.12 709.02 708.86 738.99 709.08 768.96 C 716.03 769.61 723.03 769.20 730.00 769.34 C 733.28 769.29 736.61 769.69 739.87 769.05 C 740.17 739.03 739.92 709.01 739.99 678.99 C 749.59 678.84 759.20 679.22 768.78 678.68 C 769.52 669.83 769.06 660.91 769.03 652.04 C 759.59 651.95 750.15 652.03 740.71 652.03 C 740.51 648.02 740.41 643.99 740.90 640.00 C 741.52 634.21 745.73 628.97 751.30 627.22 C 758.29 624.89 765.78 626.36 773.00 626.00 C 773.00 617.67 773.00 609.35 773.00 601.03 C 763.98 601.07 754.94 599.20 745.94 600.70 M 655.42 601.51 C 651.90 601.99 648.52 603.48 645.80 605.78 C 636.72 613.60 638.11 630.35 648.67 636.24 C 655.62 640.60 665.31 639.87 671.45 634.41 C 677.74 629.06 679.91 619.39 675.96 612.03 C 672.51 604.38 663.55 600.19 655.42 601.51 M 129.00 606.00 C 129.02 660.62 128.95 715.24 129.04 769.86 C 159.34 769.65 189.64 769.73 219.94 769.83 C 221.05 769.85 222.06 769.53 222.97 768.88 C 222.62 758.69 223.23 748.49 222.67 738.31 C 202.47 737.71 182.24 738.34 162.03 737.97 C 161.96 692.98 162.02 648.00 162.00 603.01 C 151.69 603.01 141.39 602.96 131.09 603.03 C 129.30 602.68 128.78 604.64 129.00 606.00 M 538.32 661.28 C 536.99 662.49 535.64 663.70 534.05 664.57 C 533.87 660.81 534.17 657.05 533.88 653.31 C 533.58 653.02 532.97 652.44 532.67 652.15 C 524.16 651.82 515.62 652.06 507.09 652.03 C 505.49 651.82 504.68 653.65 505.00 655.00 C 505.00 709.36 504.99 763.71 505.01 818.07 C 515.34 818.02 525.67 818.08 536.00 817.99 C 535.93 798.57 536.14 779.14 535.88 759.72 C 548.05 769.61 564.10 775.15 579.78 772.47 C 594.28 770.36 607.64 762.08 616.32 750.33 C 625.82 738.10 629.54 722.20 628.98 706.93 C 628.11 692.38 623.09 677.75 613.22 666.83 C 603.28 655.90 588.74 649.67 574.08 649.00 C 561.20 648.52 548.10 652.81 538.32 661.28 M 279.39 650.45 C 271.43 651.83 263.65 654.49 256.77 658.76 C 235.71 671.77 225.83 698.65 229.68 722.57 C 232.13 737.22 240.37 750.82 252.31 759.68 C 266.23 770.33 284.71 775.38 302.02 771.96 C 328.57 767.91 351.32 744.11 352.20 716.95 C 352.58 708.88 352.48 700.63 350.18 692.83 C 345.52 676.36 333.29 662.28 317.64 655.37 C 305.79 649.67 292.25 648.85 279.39 650.45 M 418.41 650.54 C 405.05 652.76 392.10 658.85 382.76 668.77 C 373.46 678.47 367.94 691.57 367.01 704.92 C 367.19 710.76 366.50 716.68 367.52 722.46 C 371.25 746.95 391.89 767.53 416.22 771.79 C 443.14 777.54 473.67 763.71 485.16 738.25 C 491.82 724.39 492.70 708.09 488.68 693.34 C 483.74 675.35 469.46 660.51 452.11 653.96 C 441.45 649.68 429.68 649.13 418.41 650.54 M 643.68 652.96 C 643.41 689.98 643.67 727.00 643.55 764.02 C 643.49 765.85 643.61 767.69 644.09 769.48 C 654.01 769.53 663.94 769.76 673.87 769.64 C 674.60 756.79 673.97 743.87 674.18 730.99 C 674.11 705.01 674.37 679.01 674.04 653.03 C 669.77 651.97 665.34 652.63 661.00 652.43 C 655.24 652.68 649.37 651.84 643.68 652.96 M 871.08 651.99 C 868.90 655.21 868.08 659.06 866.63 662.62 C 858.01 685.50 849.89 708.57 841.38 731.50 C 834.78 715.92 829.13 699.95 822.78 684.27 C 818.38 673.75 814.78 662.90 810.04 652.53 C 799.27 652.50 788.51 652.62 777.75 652.68 C 792.84 692.24 809.11 731.39 824.05 770.99 C 822.26 777.77 819.40 785.46 812.57 788.61 C 806.44 791.60 799.53 790.54 793.02 789.94 C 793.05 799.21 792.86 808.48 793.12 817.75 C 794.60 820.00 797.73 818.59 799.99 819.00 C 810.63 819.50 821.91 818.08 830.83 811.79 C 841.21 804.75 847.37 793.35 851.98 782.00 C 869.24 738.77 885.58 695.18 902.98 652.00 C 892.34 651.99 881.71 652.02 871.08 651.99 Z" />
<path fill="#15212d" opacity="1.00" d=" M 289.42 676.30 C 297.93 676.20 306.90 678.81 312.83 685.19 C 320.39 692.96 322.43 704.53 321.27 714.98 C 320.68 724.26 316.92 733.66 309.71 739.77 C 298.16 749.62 278.97 748.48 268.64 737.35 C 261.93 730.46 259.46 720.35 259.99 710.96 C 260.21 699.73 264.65 687.76 274.22 681.23 C 278.62 678.02 284.05 676.63 289.42 676.30 Z" />
<path fill="#15212d" opacity="1.00" d=" M 424.38 676.43 C 433.42 674.73 442.98 678.18 449.76 684.21 C 456.62 690.89 460.09 700.57 460.30 710.04 C 460.82 719.60 458.61 729.83 451.93 737.01 C 440.38 749.93 417.66 749.60 406.22 736.72 C 399.47 728.88 396.98 718.20 397.67 708.05 C 397.70 699.34 401.20 690.57 407.65 684.64 C 412.18 680.21 418.19 677.54 424.38 676.43 Z" />
<path fill="#15212d" opacity="1.00" d=" M 561.31 676.23 C 571.36 674.68 582.05 678.64 588.71 686.32 C 600.21 700.45 600.01 723.12 587.76 736.74 C 581.89 742.76 573.48 746.59 564.98 746.10 C 554.63 746.74 544.19 741.07 538.87 732.20 C 534.61 725.64 533.31 717.68 533.14 710.00 C 533.54 702.08 535.31 693.77 540.65 687.62 C 545.76 681.33 553.41 677.57 561.31 676.23 Z" />
</g>
<g id="#1db546ff">
<path fill="#1db546" opacity="1.00" d=" M 474.61 170.62 C 511.30 161.66 551.42 164.45 585.38 181.57 C 615.75 197.02 640.80 222.82 655.15 253.75 C 672.16 289.79 674.33 332.82 660.15 370.15 C 654.35 385.19 646.04 399.30 635.52 411.53 C 625.69 422.67 614.85 432.85 604.30 443.30 C 588.37 459.04 572.17 474.51 555.76 489.75 C 543.02 501.75 529.97 513.56 515.55 523.53 C 503.74 531.89 490.31 537.93 476.23 541.25 C 459.84 545.38 442.84 546.31 426.00 546.00 C 400.59 545.80 375.16 546.47 349.76 545.43 C 352.36 549.37 356.67 552.14 358.11 556.85 C 360.53 562.96 358.65 570.37 353.41 574.40 C 344.53 581.48 330.71 579.95 322.62 572.34 C 311.48 562.17 300.76 551.53 290.41 540.55 C 283.35 532.82 276.27 523.88 275.61 512.99 C 274.75 504.73 278.14 496.66 283.42 490.45 C 291.98 480.39 301.35 471.05 310.38 461.40 C 315.45 456.09 320.52 450.40 327.33 447.29 C 335.61 443.34 345.94 444.52 353.47 449.60 C 358.11 452.77 358.90 458.80 358.46 463.98 C 358.16 470.66 354.31 476.39 350.70 481.75 C 348.81 484.67 346.40 487.43 345.66 490.92 C 347.37 494.15 351.89 494.04 355.11 494.51 C 371.07 494.74 387.03 494.51 403.00 494.58 C 417.60 494.53 432.24 494.92 446.80 493.65 C 461.36 491.80 475.59 486.94 487.97 479.00 C 502.70 469.81 515.72 458.19 528.51 446.51 C 544.63 431.63 559.96 415.93 575.13 400.10 C 583.42 391.04 592.42 382.54 599.33 372.32 C 608.29 359.70 613.54 344.73 615.47 329.44 C 617.21 312.95 616.29 295.78 609.64 280.39 C 602.73 264.27 592.13 249.51 578.15 238.79 C 563.39 226.86 544.96 219.72 526.08 218.11 C 517.25 217.63 508.32 217.27 499.54 218.56 C 487.42 220.63 475.60 224.73 464.95 230.90 C 456.31 235.97 447.87 241.71 441.36 249.43 C 425.94 266.93 414.72 289.25 414.38 312.94 C 414.27 328.95 416.53 345.47 424.31 359.69 C 432.37 374.93 444.39 387.49 456.14 399.90 C 465.43 409.93 475.08 419.61 484.64 429.38 C 487.86 432.80 491.48 435.88 494.18 439.76 C 485.84 447.09 477.03 454.11 467.01 459.04 C 461.50 461.65 454.86 463.54 448.98 461.03 C 443.74 458.61 439.34 454.76 434.95 451.09 C 421.96 439.42 409.60 427.05 398.01 414.00 C 379.23 393.58 366.98 367.41 362.92 339.99 C 361.39 329.02 360.30 317.86 361.61 306.81 C 364.00 278.50 373.88 250.71 390.83 227.84 C 411.24 200.08 441.10 179.08 474.61 170.62 Z" />
<path fill="#1db546" opacity="1.00" d=" M 695.80 443.68 C 702.75 442.07 709.30 446.27 714.05 450.95 C 724.16 460.50 733.75 470.59 743.30 480.71 C 749.79 487.57 756.77 495.05 758.27 504.77 C 759.98 514.74 755.85 524.85 749.23 532.21 C 740.09 542.39 730.29 551.95 720.70 561.70 C 716.98 565.32 713.46 569.18 709.46 572.51 C 704.21 577.02 696.65 577.17 690.21 575.79 C 684.19 573.82 681.28 566.91 681.89 560.96 C 681.93 553.44 688.29 548.45 691.18 542.06 C 662.45 541.82 633.71 542.04 604.98 541.88 C 589.94 541.80 574.65 541.07 560.12 536.85 C 556.45 535.70 552.74 534.43 549.60 532.14 C 558.96 523.67 568.30 515.17 577.19 506.20 C 581.59 501.93 585.68 497.26 590.80 493.81 C 595.53 490.64 601.41 490.04 606.97 490.00 C 634.66 490.00 662.34 489.99 690.03 490.02 C 691.53 490.07 692.89 489.41 694.26 488.86 C 690.44 480.17 682.27 473.06 681.93 463.03 C 681.18 454.38 687.55 445.93 695.80 443.68 Z" />
</g>
<g id="#f8f8edff">
<path fill="#f8f8ed" opacity="1.00" d=" M 745.94 600.70 C 754.94 599.20 763.98 601.07 773.00 601.03 C 773.00 609.35 773.00 617.67 773.00 626.00 C 765.78 626.36 758.29 624.89 751.30 627.22 C 745.73 628.97 741.52 634.21 740.90 640.00 C 740.41 643.99 740.51 648.02 740.71 652.03 C 750.15 652.03 759.59 651.95 769.03 652.04 C 769.06 660.91 769.52 669.83 768.78 678.68 C 759.20 679.22 749.59 678.84 739.99 678.99 C 739.92 709.01 740.17 739.03 739.87 769.05 C 736.61 769.69 733.28 769.29 730.00 769.34 C 723.03 769.20 716.03 769.61 709.08 768.96 C 708.86 738.99 709.12 709.02 708.95 679.05 C 701.65 678.90 694.36 679.09 687.06 678.94 C 686.99 670.10 686.90 661.26 687.12 652.42 C 694.14 652.35 701.17 652.51 708.20 652.36 C 708.13 641.72 707.35 630.31 712.71 620.67 C 719.12 608.59 732.60 601.62 745.94 600.70 Z" />
<path fill="#f8f8ed" opacity="1.00" d=" M 655.42 601.51 C 663.55 600.19 672.51 604.38 675.96 612.03 C 679.91 619.39 677.74 629.06 671.45 634.41 C 665.31 639.87 655.62 640.60 648.67 636.24 C 638.11 630.35 636.72 613.60 645.80 605.78 C 648.52 603.48 651.90 601.99 655.42 601.51 Z" />
<path fill="#f8f8ed" opacity="1.00" d=" M 129.00 606.00 C 128.78 604.64 129.30 602.68 131.09 603.03 C 141.39 602.96 151.69 603.01 162.00 603.01 C 162.02 648.00 161.96 692.98 162.03 737.97 C 182.24 738.34 202.47 737.71 222.67 738.31 C 223.23 748.49 222.62 758.69 222.97 768.88 C 222.06 769.53 221.05 769.85 219.94 769.83 C 189.64 769.73 159.34 769.65 129.04 769.86 C 128.95 715.24 129.02 660.62 129.00 606.00 Z" />
<path fill="#f8f8ed" opacity="1.00" d=" M 538.32 661.28 C 548.10 652.81 561.20 648.52 574.08 649.00 C 588.74 649.67 603.28 655.90 613.22 666.83 C 623.09 677.75 628.11 692.38 628.98 706.93 C 629.54 722.20 625.82 738.10 616.32 750.33 C 607.64 762.08 594.28 770.36 579.78 772.47 C 564.10 775.15 548.05 769.61 535.88 759.72 C 536.14 779.14 535.93 798.57 536.00 817.99 C 525.67 818.08 515.34 818.02 505.01 818.07 C 504.99 763.71 505.00 709.36 505.00 655.00 C 504.68 653.65 505.49 651.82 507.09 652.03 C 515.62 652.06 524.16 651.82 532.67 652.15 C 532.97 652.44 533.58 653.02 533.88 653.31 C 534.17 657.05 533.87 660.81 534.05 664.57 C 535.64 663.70 536.99 662.49 538.32 661.28 M 561.31 676.23 C 553.41 677.57 545.76 681.33 540.65 687.62 C 535.31 693.77 533.54 702.08 533.14 710.00 C 533.31 717.68 534.61 725.64 538.87 732.20 C 544.19 741.07 554.63 746.74 564.98 746.10 C 573.48 746.59 581.89 742.76 587.76 736.74 C 600.01 723.12 600.21 700.45 588.71 686.32 C 582.05 678.64 571.36 674.68 561.31 676.23 Z" />
<path fill="#f8f8ed" opacity="1.00" d=" M 279.39 650.45 C 292.25 648.85 305.79 649.67 317.64 655.37 C 333.29 662.28 345.52 676.36 350.18 692.83 C 352.48 700.63 352.58 708.88 352.20 716.95 C 351.32 744.11 328.57 767.91 302.02 771.96 C 284.71 775.38 266.23 770.33 252.31 759.68 C 240.37 750.82 232.13 737.22 229.68 722.57 C 225.83 698.65 235.71 671.77 256.77 658.76 C 263.65 654.49 271.43 651.83 279.39 650.45 M 289.42 676.30 C 284.05 676.63 278.62 678.02 274.22 681.23 C 264.65 687.76 260.21 699.73 259.99 710.96 C 259.46 720.35 261.93 730.46 268.64 737.35 C 278.97 748.48 298.16 749.62 309.71 739.77 C 316.92 733.66 320.68 724.26 321.27 714.98 C 322.43 704.53 320.39 692.96 312.83 685.19 C 306.90 678.81 297.93 676.20 289.42 676.30 Z" />
<path fill="#f8f8ed" opacity="1.00" d=" M 418.41 650.54 C 429.68 649.13 441.45 649.68 452.11 653.96 C 469.46 660.51 483.74 675.35 488.68 693.34 C 492.70 708.09 491.82 724.39 485.16 738.25 C 473.67 763.71 443.14 777.54 416.22 771.79 C 391.89 767.53 371.25 746.95 367.52 722.46 C 366.50 716.68 367.19 710.76 367.01 704.92 C 367.94 691.57 373.46 678.47 382.76 668.77 C 392.10 658.85 405.05 652.76 418.41 650.54 M 424.38 676.43 C 418.19 677.54 412.18 680.21 407.65 684.64 C 401.20 690.57 397.70 699.34 397.67 708.05 C 396.98 718.20 399.47 728.88 406.22 736.72 C 417.66 749.60 440.38 749.93 451.93 737.01 C 458.61 729.83 460.82 719.60 460.30 710.04 C 460.09 700.57 456.62 690.89 449.76 684.21 C 442.98 678.18 433.42 674.73 424.38 676.43 Z" />
<path fill="#f8f8ed" opacity="1.00" d=" M 643.68 652.96 C 649.37 651.84 655.24 652.68 661.00 652.43 C 665.34 652.63 669.77 651.97 674.04 653.03 C 674.37 679.01 674.11 705.01 674.18 730.99 C 673.97 743.87 674.60 756.79 673.87 769.64 C 663.94 769.76 654.01 769.53 644.09 769.48 C 643.61 767.69 643.49 765.85 643.55 764.02 C 643.67 727.00 643.41 689.98 643.68 652.96 Z" />
<path fill="#f8f8ed" opacity="1.00" d=" M 871.08 651.99 C 881.71 652.02 892.34 651.99 902.98 652.00 C 885.58 695.18 869.24 738.77 851.98 782.00 C 847.37 793.35 841.21 804.75 830.83 811.79 C 821.91 818.08 810.63 819.50 799.99 819.00 C 797.73 818.59 794.60 820.00 793.12 817.75 C 792.86 808.48 793.05 799.21 793.02 789.94 C 799.53 790.54 806.44 791.60 812.57 788.61 C 819.40 785.46 822.26 777.77 824.05 770.99 C 809.11 731.39 792.84 692.24 777.75 652.68 C 788.51 652.62 799.27 652.50 810.04 652.53 C 814.78 662.90 818.38 673.75 822.78 684.27 C 829.13 699.95 834.78 715.92 841.38 731.50 C 849.89 708.57 858.01 685.50 866.63 662.62 C 868.08 659.06 868.90 655.21 871.08 651.99 Z" />
</g>
</svg>
